<svg width="62" height="56" viewBox="0 0 62 56" fill="none" xmlns="http://www.w3.org/2000/svg">
<path d="M59.784 40.728C60.3387 40.728 60.7653 40.984 61.064 41.496C61.4053 42.008 61.576 42.712 61.576 43.608C61.576 45.272 61.1707 46.5947 60.36 47.576C58.312 50.0507 56.2427 51.9707 54.152 53.336C52.0613 54.6587 49.5867 55.32 46.728 55.32C43.9547 55.32 41.5867 54.5733 39.624 53.08C37.704 51.5867 35.8693 49.0267 34.12 45.4C32.712 42.4987 31.6027 40.3653 30.792 39C29.9813 37.592 29.1707 36.5893 28.36 35.992C27.592 35.3947 26.632 35.032 25.48 34.904C25.3093 35.8 24.8187 38.616 24.008 43.352C23.6667 45.4853 23.4533 46.7867 23.368 47.256C22.9413 49.8587 22.088 51.864 20.808 53.272C19.528 54.6373 17.5867 55.32 14.984 55.32C12.1253 55.32 9.58667 54.488 7.368 52.824C5.192 51.1173 3.50667 48.7707 2.312 45.784C1.11733 42.7547 0.52 39.32 0.52 35.48C0.52 28.312 1.75733 22.1253 4.232 16.92C6.74933 11.7147 10.248 7.74667 14.728 5.016C19.2507 2.24267 24.456 0.855999 30.344 0.855999C34.44 0.855999 37.8747 1.47467 40.648 2.712C43.4213 3.94933 45.4693 5.656 46.792 7.832C48.1573 10.008 48.84 12.4613 48.84 15.192C48.84 17.5813 48.264 19.928 47.112 22.232C46.0027 24.4933 44.3173 26.4987 42.056 28.248C39.7947 29.9973 37.0427 31.2987 33.8 32.152C35.848 32.7067 37.4267 33.6027 38.536 34.84C39.6453 36.0773 40.7547 37.8907 41.864 40.28C43.0587 42.84 44.232 44.7173 45.384 45.912C46.5787 47.1067 47.944 47.704 49.48 47.704C50.8453 47.704 52.1467 47.256 53.384 46.36C54.6213 45.4213 56.1787 43.8427 58.056 41.624C58.568 41.0267 59.144 40.728 59.784 40.728ZM16.648 34.84C15.1973 34.84 14.1947 34.4987 13.64 33.816C13.128 33.1333 12.872 32.3653 12.872 31.512C12.872 30.488 13.192 29.6773 13.832 29.08C14.5147 28.4827 15.2827 28.184 16.136 28.184H17.736C18.4187 24.0027 19.0587 20.3973 19.656 17.368C20.2107 14.5947 22.0027 13.208 25.032 13.208C27.464 13.208 28.68 14.296 28.68 16.472C28.68 16.9413 28.6587 17.304 28.616 17.56L26.696 28.184C29 28.056 31.0907 27.5013 32.968 26.52C34.888 25.5387 36.4027 24.1733 37.512 22.424C38.664 20.6747 39.24 18.6907 39.24 16.472C39.24 13.784 38.3227 11.672 36.488 10.136C34.6533 8.6 31.9653 7.832 28.424 7.832C24.2427 7.832 20.5733 8.87733 17.416 10.968C14.3013 13.016 11.8693 16.088 10.12 20.184C8.37067 24.2373 7.496 29.1867 7.496 35.032C7.496 37.7627 7.77333 40.1093 8.328 42.072C8.88267 44.0347 9.56533 45.5067 10.376 46.488C11.1867 47.4693 11.9547 47.96 12.68 47.96C13.2347 47.96 13.6827 47.6827 14.024 47.128C14.408 46.5733 14.7067 45.6773 14.92 44.44L16.648 34.84Z" fill="#CDAFDD"/>
</svg>
