<svg width="145" height="62" viewBox="0 0 145 62" fill="none" xmlns="http://www.w3.org/2000/svg">
<path d="M59.784 46.728C60.3387 46.728 60.7653 46.984 61.064 47.496C61.4053 48.008 61.576 48.712 61.576 49.608C61.576 51.272 61.1707 52.5947 60.36 53.576C58.312 56.0507 56.2427 57.9707 54.152 59.336C52.0613 60.6587 49.5867 61.32 46.728 61.32C43.9547 61.32 41.5867 60.5733 39.624 59.08C37.704 57.5867 35.8693 55.0267 34.12 51.4C32.712 48.4987 31.6027 46.3653 30.792 45C29.9813 43.592 29.1707 42.5893 28.36 41.992C27.592 41.3947 26.632 41.032 25.48 40.904C25.3093 41.8 24.8187 44.616 24.008 49.352C23.6667 51.4853 23.4533 52.7867 23.368 53.256C22.9413 55.8587 22.088 57.864 20.808 59.272C19.528 60.6373 17.5867 61.32 14.984 61.32C12.1253 61.32 9.58667 60.488 7.368 58.824C5.192 57.1173 3.50667 54.7707 2.312 51.784C1.11733 48.7547 0.52 45.32 0.52 41.48C0.52 34.312 1.75733 28.1253 4.232 22.92C6.74933 17.7147 10.248 13.7467 14.728 11.016C19.2507 8.24267 24.456 6.856 30.344 6.856C34.44 6.856 37.8747 7.47467 40.648 8.712C43.4213 9.94933 45.4693 11.656 46.792 13.832C48.1573 16.008 48.84 18.4613 48.84 21.192C48.84 23.5813 48.264 25.928 47.112 28.232C46.0027 30.4933 44.3173 32.4987 42.056 34.248C39.7947 35.9973 37.0427 37.2987 33.8 38.152C35.848 38.7067 37.4267 39.6027 38.536 40.84C39.6453 42.0773 40.7547 43.8907 41.864 46.28C43.0587 48.84 44.232 50.7173 45.384 51.912C46.5787 53.1067 47.944 53.704 49.48 53.704C50.8453 53.704 52.1467 53.256 53.384 52.36C54.6213 51.4213 56.1787 49.8427 58.056 47.624C58.568 47.0267 59.144 46.728 59.784 46.728ZM16.648 40.84C15.1973 40.84 14.1947 40.4987 13.64 39.816C13.128 39.1333 12.872 38.3653 12.872 37.512C12.872 36.488 13.192 35.6773 13.832 35.08C14.5147 34.4827 15.2827 34.184 16.136 34.184H17.736C18.4187 30.0027 19.0587 26.3973 19.656 23.368C20.2107 20.5947 22.0027 19.208 25.032 19.208C27.464 19.208 28.68 20.296 28.68 22.472C28.68 22.9413 28.6587 23.304 28.616 23.56L26.696 34.184C29 34.056 31.0907 33.5013 32.968 32.52C34.888 31.5387 36.4027 30.1733 37.512 28.424C38.664 26.6747 39.24 24.6907 39.24 22.472C39.24 19.784 38.3227 17.672 36.488 16.136C34.6533 14.6 31.9653 13.832 28.424 13.832C24.2427 13.832 20.5733 14.8773 17.416 16.968C14.3013 19.016 11.8693 22.088 10.12 26.184C8.37067 30.2373 7.496 35.1867 7.496 41.032C7.496 43.7627 7.77333 46.1093 8.328 48.072C8.88267 50.0347 9.56533 51.5067 10.376 52.488C11.1867 53.4693 11.9547 53.96 12.68 53.96C13.2347 53.96 13.6827 53.6827 14.024 53.128C14.408 52.5733 14.7067 51.6773 14.92 50.44L16.648 40.84ZM83.6785 46.728C84.2332 46.728 84.6598 46.984 84.9585 47.496C85.2998 48.008 85.4705 48.712 85.4705 49.608C85.4705 51.3147 85.0652 52.6373 84.2545 53.576C82.6758 55.496 80.4358 57.2667 77.5345 58.888C74.6758 60.5093 71.6038 61.32 68.3185 61.32C63.8385 61.32 60.3612 60.104 57.8865 57.672C55.4118 55.24 54.1745 51.912 54.1745 47.688C54.1745 44.744 54.7932 42.0133 56.0305 39.496C57.2678 36.936 58.9745 34.9093 61.1505 33.416C63.3692 31.9227 65.8652 31.176 68.6385 31.176C71.1132 31.176 73.0972 31.9227 74.5905 33.416C76.0838 34.8667 76.8305 36.8507 76.8305 39.368C76.8305 42.312 75.7638 44.8507 73.6305 46.984C71.5398 49.0747 67.9772 50.7387 62.9425 51.976C64.0092 53.9387 66.0358 54.92 69.0225 54.92C70.9425 54.92 73.1185 54.2587 75.5505 52.936C78.0252 51.5707 80.1585 49.8 81.9505 47.624C82.4625 47.0267 83.0385 46.728 83.6785 46.728ZM67.5505 37.448C65.9718 37.448 64.6278 38.3653 63.5185 40.2C62.4518 42.0347 61.9185 44.2533 61.9185 46.856V46.984C64.4358 46.3867 66.4198 45.4907 67.8705 44.296C69.3212 43.1013 70.0465 41.7147 70.0465 40.136C70.0465 39.3253 69.8118 38.6853 69.3425 38.216C68.9158 37.704 68.3185 37.448 67.5505 37.448ZM88.6435 26.952C86.8515 26.952 85.5075 26.5467 84.6115 25.736C83.7155 24.8827 83.2675 23.7093 83.2675 22.216C83.2675 20.7227 83.8435 19.4853 84.9955 18.504C86.1902 17.48 87.6622 16.968 89.4115 16.968C90.9902 16.968 92.2702 17.352 93.2515 18.12C94.2328 18.888 94.7235 19.976 94.7235 21.384C94.7235 23.0907 94.1688 24.456 93.0595 25.48C91.9502 26.4613 90.4782 26.952 88.6435 26.952ZM88.1315 61.32C85.3582 61.32 83.3315 60.3387 82.0515 58.376C80.8142 56.4133 80.1955 53.8107 80.1955 50.568C80.1955 48.648 80.4302 46.1947 80.8995 43.208C81.4115 40.1787 82.0515 37.3627 82.8195 34.76C83.2035 33.3947 83.7155 32.456 84.3555 31.944C84.9955 31.432 86.0195 31.176 87.4275 31.176C89.6035 31.176 90.6915 31.9013 90.6915 33.352C90.6915 34.4187 90.2862 36.8933 89.4755 40.776C88.4515 45.4693 87.9395 48.648 87.9395 50.312C87.9395 51.592 88.1102 52.5733 88.4515 53.256C88.7928 53.9387 89.3688 54.28 90.1795 54.28C90.9475 54.28 91.9075 53.7467 93.0595 52.68C94.2115 51.6133 95.7475 49.928 97.6675 47.624C98.1795 47.0267 98.7555 46.728 99.3955 46.728C99.9502 46.728 100.377 46.984 100.676 47.496C101.017 48.008 101.188 48.712 101.188 49.608C101.188 51.3147 100.782 52.6373 99.9715 53.576C95.7475 58.7387 91.8008 61.32 88.1315 61.32ZM133.002 46.728C133.556 46.728 133.983 46.984 134.282 47.496C134.623 48.008 134.794 48.712 134.794 49.608C134.794 51.3147 134.388 52.6373 133.578 53.576C131.658 55.9227 129.716 57.8 127.754 59.208C125.791 60.616 123.466 61.32 120.778 61.32C117.492 61.32 114.847 60.3813 112.842 58.504C110.836 56.6267 109.833 54.1307 109.833 51.016C109.833 49.352 110.687 48.1573 112.394 47.432C114.271 46.6213 115.615 45.768 116.426 44.872C117.236 43.9333 117.642 42.8027 117.642 41.48C117.642 40.712 117.471 40.136 117.13 39.752C116.831 39.368 116.447 39.176 115.978 39.176C114.826 39.176 113.546 40.008 112.138 41.672C110.772 43.336 109.492 45.4907 108.298 48.136C107.103 50.7387 106.164 53.4267 105.482 56.2C105.012 58.2053 104.458 59.5707 103.818 60.296C103.22 60.9787 102.26 61.32 100.938 61.32C99.6148 61.32 98.6335 60.8507 97.9935 59.912C97.3962 58.9307 96.9908 57.4373 96.7775 55.432C96.5642 53.4267 96.4575 50.4827 96.4575 46.6C96.4575 40.0293 97.1188 33.1813 98.4415 26.056C99.8068 18.9307 101.791 12.9573 104.394 8.136C107.039 3.272 110.196 0.839996 113.866 0.839996C115.828 0.839996 117.407 1.69333 118.602 3.4C119.839 5.064 120.458 7.24 120.458 9.928C120.458 14.2373 119.199 18.7173 116.682 23.368C114.164 27.976 110.068 33.3733 104.394 39.56C104.266 41.7787 104.202 44.0613 104.202 46.408C106.25 41.0747 108.596 37.2133 111.242 34.824C113.887 32.392 116.362 31.176 118.666 31.176C120.799 31.176 122.506 31.9013 123.786 33.352C125.108 34.8027 125.77 36.5947 125.77 38.728C125.77 41.0747 125.172 43.2293 123.978 45.192C122.783 47.1547 120.735 48.904 117.834 50.44C118.004 51.592 118.516 52.5307 119.37 53.256C120.266 53.9387 121.332 54.28 122.57 54.28C123.892 54.28 125.172 53.768 126.41 52.744C127.647 51.72 129.268 50.0133 131.274 47.624C131.786 47.0267 132.362 46.728 133.002 46.728ZM112.522 7.176C111.754 7.176 110.9 8.28533 109.962 10.504C109.023 12.68 108.106 15.6453 107.21 19.4C106.356 23.112 105.652 27.1653 105.098 31.56C107.743 28.4453 109.919 25.0533 111.626 21.384C113.375 17.7147 114.25 14.3867 114.25 11.4C114.25 10.0347 114.1 8.98933 113.802 8.264C113.503 7.53866 113.076 7.176 112.522 7.176ZM138.467 26.952C136.675 26.952 135.331 26.5467 134.435 25.736C133.539 24.8827 133.091 23.7093 133.091 22.216C133.091 20.7227 133.667 19.4853 134.819 18.504C136.013 17.48 137.485 16.968 139.235 16.968C140.813 16.968 142.093 17.352 143.075 18.12C144.056 18.888 144.547 19.976 144.547 21.384C144.547 23.0907 143.992 24.456 142.883 25.48C141.773 26.4613 140.301 26.952 138.467 26.952ZM132.323 61.32C130.957 61.32 130.019 61.0427 129.507 60.488C128.995 59.9333 128.739 59.0587 128.739 57.864C128.739 57.5227 128.781 56.9253 128.867 56.072C129.549 48.264 130.68 41.16 132.259 34.76C132.6 33.4373 133.155 32.52 133.923 32.008C134.733 31.4533 136.013 31.176 137.763 31.176C139.597 31.176 140.515 31.9227 140.515 33.416C140.515 33.6293 140.472 34.0347 140.387 34.632C138.467 43.7627 137.315 51.4213 136.931 57.608C136.845 58.9733 136.44 59.9333 135.715 60.488C134.989 61.0427 133.859 61.32 132.323 61.32Z" fill="#CDAFDD"/>
</svg>
